<svg width="1175" height="1173" viewBox="0 0 1175 1173" fill="none" xmlns="http://www.w3.org/2000/svg">
<path d="M548 7.69999C544.8 8.09999 543.2 9.69999 530.5 25.8C522.8 35.5 512 49.6 506.5 57C501 64.4 490.2 79.9 482.4 91.5C474.7 103.1 464.7 118.7 460.2 126.3C455.7 133.8 448.8 145.7 444.9 152.8C440.9 159.8 433.3 174.3 427.9 185C422.6 195.7 416.1 209.2 413.5 215C410.9 220.8 406.6 231.1 403.8 238C401 244.9 396 258.1 392.5 267.5C389.1 276.9 383.7 292.4 380.7 302C377.6 311.6 373.8 324.2 372.1 330C370.5 335.8 367 348.8 364.5 359C361.9 369.2 358.1 386.4 355.9 397.3C353.8 408.1 350.7 426.3 349.1 437.8C347.4 449.2 345.6 463.7 345 470C344.4 476.3 343.5 486.4 343 492.5C342.5 498.6 342.3 520.6 342.5 541.5C342.7 566.9 343.3 584.6 344.4 595C345.3 603.5 346.9 616.8 348.1 624.5C349.2 632.2 351.4 645 353 653C354.6 661 357.5 673.6 359.4 681C361.3 688.4 364.5 699.9 366.5 706.5C368.5 713.1 372.2 724.1 374.7 731C377.1 737.9 381.4 748.9 384.2 755.5C386.9 762.1 392.9 775.1 397.5 784.5C402.1 793.9 409.2 807.1 413.3 814C417.3 820.9 423.6 831 427.2 836.5C430.7 842 438.4 852.8 444.2 860.5C450 868.2 458.2 878.5 462.4 883.5C466.7 888.5 476.1 898.5 483.3 905.8C490.6 913.2 501 923.1 506.5 927.9C512 932.6 520.1 939.3 524.5 942.6C528.9 945.9 536.1 951.1 540.5 954.2C544.9 957.2 553 962.3 558.5 965.5C564 968.8 572.8 973.4 578 975.8C583.2 978.3 592.3 982 598.3 984.1C606 986.9 609.1 987.7 609.4 986.7C609.6 986.1 605.9 982.4 601.2 978.5C596.4 974.6 586.7 965.9 579.6 959C572.5 952.1 561.7 940.9 555.7 934C549.7 927.1 540.3 915.6 535 908.5C529.6 901.4 522.1 890.5 518.2 884.5C514.4 878.5 508.3 868.1 504.7 861.5C501 854.9 495.2 843 491.6 835C488.1 827 482.9 813.7 480.1 805.5C477.4 797.2 473.8 785.1 472.2 778.5C470.5 771.9 468.3 760.6 467.1 753.5C466 746.4 464.6 735.8 464 730C463.5 724.2 462.3 713.9 461.5 707C460.5 699 459.9 685.9 459.9 670.5C459.9 655.5 460.5 640.3 461.5 630C462.4 620.9 464.5 605.6 466.1 596C467.8 586.4 471.3 570 474 559.5C476.7 549 481.1 534 483.8 526C486.5 518 491.1 505.6 494 498.5C496.9 491.4 502.5 478.7 506.4 470.5C510.4 462.2 516.2 450.8 519.4 445C522.6 439.2 529.4 427.7 534.5 419.5C539.6 411.2 548.2 398.4 553.5 391C558.9 383.6 567.6 372.1 572.9 365.6C578.2 359 588.6 346.8 596.1 338.6C603.6 330.3 614.9 318.5 621.1 312.5C627.4 306.4 635.9 298.3 640 294.5C644.1 290.7 654.5 281.8 663 274.7C671.5 267.6 685.3 256.7 693.5 250.5C701.8 244.3 716.8 233.6 727 226.8C737.2 219.9 752.9 209.8 762 204.3C771.1 198.8 786.8 189.7 797 184C807.2 178.3 824.7 169.1 836 163.6C847.3 158 863.3 150.3 871.5 146.5C879.8 142.8 896 135.7 907.5 130.9C919 126 928.6 121.7 928.7 121.3C928.9 120.8 923.5 116.6 916.7 111.9C910 107.2 900 100.4 894.5 96.8C889 93.3 879.3 87.4 873 83.8C866.7 80.2 856.3 74.5 850 71.2C843.7 67.8 832.4 62.3 825 58.9C817.6 55.5 805.2 50.3 797.5 47.3C789.8 44.3 777.2 39.6 769.5 36.9C761.8 34.3 749.2 30.3 741.5 28.1C733.8 26 720.3 22.6 711.5 20.7C702.7 18.7 687.2 15.8 677 14.1C666.8 12.4 651.5 10.3 643 9.39999C632.5 8.29999 615.2 7.69999 589.5 7.49999C568.6 7.39999 549.9 7.39999 548 7.69999ZM966 383.7C962.4 383.9 951.9 384.7 942.5 385.6C933.1 386.4 919.2 388 911.5 389.1C903.8 390.2 891.6 392.2 884.5 393.6C877.4 395 863.6 398.1 854 400.5C844.4 402.9 829.3 407.2 820.5 410C811.7 412.9 797.1 418.1 788 421.7C778.9 425.3 763.4 432.1 753.5 436.9C743.6 441.7 729.4 449.1 722 453.5C714.6 457.8 704 464.2 698.5 467.8C693 471.4 683.5 477.9 677.5 482.4C671.5 486.9 661.1 495 654.5 500.4C647.9 505.9 636.7 516 629.7 522.9C622.6 529.8 612.9 539.9 608.2 545.3C603.4 550.7 595 561.2 589.5 568.5C584 575.8 576.7 586.3 573.4 591.7C570 597.1 564.3 607.3 560.7 614.5C557.2 621.6 552.6 631.9 550.6 637.2C548.6 642.6 547 647.9 547 649C547 650.1 547.3 651 547.8 651C548.2 651 552.1 646.6 556.5 641.3C560.9 635.9 571.5 624.5 580 615.9C588.5 607.4 601.2 595.7 608.1 589.9C615 584.2 626 575.7 632.6 571C639.1 566.4 650.4 559 657.5 554.7C664.6 550.3 676.4 543.9 683.5 540.3C690.6 536.7 701.2 531.8 707 529.5C712.8 527.1 722.2 523.5 728 521.5C733.8 519.5 742.8 516.8 748 515.4C753.2 514 762.7 511.8 769 510.5C775.3 509.2 787 507.4 795 506.6C803 505.7 812.6 504.5 816.5 504C820.4 503.4 828.7 502.5 835 502C841.3 501.5 854.1 501 863.5 501C872.9 501 886.6 501.5 894 502C901.4 502.6 912.7 503.7 919 504.6C925.3 505.4 936.6 507.2 944 508.6C951.4 510 962.9 512.4 969.5 514.1C976.1 515.7 987.4 518.8 994.5 521C1001.6 523.1 1015.1 527.8 1024.5 531.3C1033.8 534.9 1047.1 540.3 1054 543.4C1060.9 546.6 1072.3 552.2 1079.5 556C1086.7 559.7 1097.2 565.6 1103 569C1108.8 572.5 1118 578.2 1123.5 581.8C1129 585.4 1139.2 592.5 1146.3 597.6C1153.3 602.8 1159.2 607 1159.5 607C1159.8 607 1159.8 591.6 1159.6 572.7C1159.3 550.3 1158.6 533.5 1157.6 524C1156.7 516 1155.2 504.8 1154.4 499C1153.6 493.2 1151.8 482.4 1150.4 475C1149.1 467.6 1145.9 453.4 1143.5 443.5C1141 433.6 1137 419 1134.5 411C1132 403 1129.9 396.4 1129.7 396.2C1129.6 396.1 1126.1 395.3 1122 394.5C1117.9 393.7 1106.8 391.9 1097.5 390.5C1088.2 389.2 1073.8 387.4 1065.5 386.5C1057.3 385.7 1042.2 384.6 1032 384C1021.8 383.4 1004.3 383.1 993 383.2C981.7 383.3 969.6 383.6 966 383.7ZM24.1 444.7C22.4 451.8 20.4 460.6 19.6 464.5C18.8 468.3 17 478.2 15.6 486.5C14.2 494.7 12.4 507.3 11.6 514.5C10.7 521.6 9.6 533.6 9 541C8.5 548.4 8 567.3 8 583C8 598.7 8.4 617.3 9 624.5C9.5 631.6 10.7 643.6 11.6 651C12.4 658.4 14.2 671.2 15.6 679.5C17 687.7 19.4 700.6 21 708C22.7 715.4 26 728.7 28.4 737.5C30.8 746.3 34.9 759.8 37.5 767.5C40.1 775.2 45.3 789.4 49.2 799C53 808.6 61.1 826.4 67 838.5C73 850.6 82.8 868.6 88.7 878.5C94.7 888.4 101.6 899.4 104 903C106.4 906.6 112 914.5 116.3 920.5C120.7 926.5 127.7 935.8 131.8 941C136 946.2 144.9 956.8 151.5 964.5C158.2 972.2 171.5 986.1 181.1 995.5C190.7 1004.8 204.4 1017.4 211.5 1023.4C218.7 1029.3 230.8 1038.9 238.5 1044.7C246.2 1050.5 258.8 1059.4 266.5 1064.5C274.2 1069.6 286.1 1077 293 1081C299.9 1085 311.8 1091.5 319.5 1095.6C327.2 1099.6 339.8 1105.7 347.5 1109.1C355.2 1112.5 366.7 1117.3 373 1119.7C379.3 1122.2 390.1 1126.2 397 1128.6C403.9 1131 415.8 1134.8 423.5 1137C431.2 1139.2 445.4 1142.8 455 1144.9C464.6 1147.1 479.5 1150 488 1151.4C496.5 1152.7 509.3 1154.6 516.5 1155.4C523.6 1156.3 535.6 1157.4 543 1158C550.4 1158.5 569.1 1159 584.5 1159C600.2 1159 620.2 1158.3 630 1157.5C639.6 1156.7 652.9 1155.3 659.5 1154.5C666.1 1153.6 676.7 1152 683 1150.9C689.3 1149.9 701.9 1147.4 711 1145.4C720.1 1143.4 733.8 1140 741.5 1137.8C751.7 1134.9 757.9 1132.5 764.5 1128.8C769.5 1126 778.2 1120.8 784 1117.2C789.8 1113.7 798.1 1108.3 802.5 1105.2C806.9 1102.2 815 1096.3 820.5 1092.2C826 1088 836.3 1079.6 843.5 1073.5C850.6 1067.3 862.8 1055.8 870.5 1047.9C878.2 1040 888.8 1028.1 894.1 1021.5C899.4 1014.9 907.5 1003.9 912.2 997C916.9 990.1 923.2 980 926.2 974.5C929.2 969 933.5 960.5 935.7 955.5C938 950.5 941.2 942.6 942.9 937.7C945.2 931.1 945.7 928.8 944.7 928.3C944 927.9 942.3 929.2 940.5 931.6C938.8 933.7 933 940.7 927.4 947C921.8 953.3 913.1 962.6 907.9 967.5C902.7 972.5 893.8 980.6 888 985.5C882.2 990.5 873.9 997.3 869.5 1000.6C865.1 1003.9 857.2 1009.6 852 1013.1C846.8 1016.7 837.4 1022.7 831.2 1026.3C825.1 1030 814.7 1035.6 808.2 1038.9C801.8 1042.1 790.4 1047.3 783 1050.3C775.6 1053.3 764.5 1057.4 758.5 1059.3C752.4 1061.2 742.8 1064 737 1065.4C731.2 1066.8 721.3 1068.8 715 1069.9C708.7 1071 697 1072.6 689 1073.5C681 1074.3 670.9 1075.6 666.5 1076.2C661.8 1076.9 646.2 1077.4 629 1077.4C611 1077.5 594.6 1077 587 1076.2C580.1 1075.4 567.7 1073.7 559.5 1072.4C551.2 1071 538.4 1068.6 531 1066.9C523.6 1065.2 510.7 1061.9 502.5 1059.5C494.2 1057.1 482.5 1053.3 476.5 1051.1C470.4 1049 461.9 1045.7 457.5 1044C453.1 1042.2 442.5 1037.5 434 1033.6C425.5 1029.7 411.3 1022.5 402.5 1017.6C393.7 1012.7 381.5 1005.6 375.5 1001.7C369.4 997.9 358.4 990.4 351 985.2C343.6 979.9 332.1 971.2 325.5 965.9C318.9 960.6 308.8 952.1 303 947C297.2 941.9 286.5 931.8 279.1 924.6C271.8 917.4 259.5 904.5 251.7 896C244 887.5 231.7 873.1 224.5 864C217.2 854.9 206.4 840.7 200.4 832.5C194.5 824.2 185 810.5 179.5 802C173.9 793.5 166.1 781.2 162.2 774.7C158.2 768.3 149.8 753.7 143.5 742.2C137.1 730.8 126.8 711.1 120.6 698.5C114.3 685.8 104.8 665.6 99.5 653.5C94.1 641.4 85.8 621.6 81 609.5C76.2 597.4 69.2 579.2 65.5 569C61.9 558.8 57.3 546.5 55.5 541.5C53.7 536.5 50.6 527.3 48.6 521C46.7 514.7 43.5 503.2 41.6 495.5C39.6 487.8 36.3 472.5 34.1 461.5C32 450.5 30 439.4 29.7 436.7C29.4 434.1 28.7 432 28.2 432C27.6 432 25.8 437.7 24.1 444.7ZM485.5 14.9C476.7 16.5 463 19.2 455 21C447 22.7 432.9 26.4 423.5 29.1C414.1 31.7 401.6 35.7 395.5 37.8C389.4 40 378.2 44.3 370.5 47.3C362.8 50.3 350.4 55.5 343 58.9C335.6 62.3 324.3 67.8 318 71.2C311.7 74.5 301.3 80.2 295 83.8C288.7 87.4 276.5 94.9 268 100.6C259.5 106.2 246.9 114.9 240 120C233.1 125.1 221 134.8 213 141.4C205 148.1 190.7 161.1 181.1 170.5C171.5 179.8 157.6 194.5 150.2 203C142.9 211.5 132.8 223.7 127.9 230C123 236.3 114.8 247.6 109.6 255C104.4 262.4 95.4 276.4 89.6 286C83.9 295.6 75.6 310.5 71.1 319C66.7 327.5 60.3 340.8 57 348.5L50.8 362.5C54.1 395.8 56.2 413.6 57.6 423.5C58.9 433.4 61.2 448 62.6 456C64 464 66.2 476.1 67.6 483C69 489.9 71.5 501.6 73.1 509C74.8 516.4 78.6 531.5 81.5 542.5C84.5 553.5 89.7 571 93.1 581.5C96.5 592 102.1 607.9 105.5 617C109 626.1 114 638.5 116.5 644.5C119.1 650.5 125.2 663.8 129.9 674C134.7 684.2 143.1 701 148.7 711.5C154.2 722 162.7 737.2 167.5 745.5C172.3 753.7 179.9 766.2 184.4 773.2C188.8 780.2 197.1 792.6 202.7 800.7C208.3 808.9 218 822.1 224.2 830.1C230.4 838.2 241.6 851.9 249 860.6C256.4 869.3 270.6 884.5 280.5 894.5C290.4 904.4 303.7 917.1 310 922.6C316.3 928.2 326.5 936.7 332.6 941.6C338.7 946.5 349.1 954.4 355.6 959.2C362.2 963.9 373.9 971.9 381.7 976.9C389.6 981.9 401.3 989 407.7 992.7C414.2 996.4 428.1 1003.5 438.5 1008.6C448.9 1013.6 463.8 1020.3 471.5 1023.3C479.2 1026.4 492.9 1031.3 502 1034.3C511.1 1037.3 525.9 1041.6 535 1043.8C544.1 1046.1 557.6 1049.1 565 1050.4C572.4 1051.8 583.7 1053.6 590 1054.4C596.3 1055.2 608.7 1056.4 617.5 1057.1C627.1 1057.8 642.7 1058 656.5 1057.7C669.1 1057.4 685.4 1056.4 692.5 1055.6C699.6 1054.7 710.5 1053.1 716.5 1052C722.5 1050.8 733.4 1048.3 740.5 1046.4C747.6 1044.5 757.8 1041.3 763 1039.3C768.2 1037.3 776.1 1034 780.5 1031.8C784.9 1029.7 789 1027.5 789.5 1027C790 1026.5 790.3 1025.8 790 1025.5C789.7 1025.1 783.9 1025.4 777 1026C770.1 1026.6 753.7 1027.1 740.5 1027.1C726 1027.1 710.6 1026.5 701.5 1025.5C693.2 1024.6 683.6 1023.5 680 1022.9C676.4 1022.4 668.8 1021 663 1019.9C657.2 1018.8 647.1 1016.6 640.5 1014.9C633.9 1013.2 622 1009.7 614 1007C606 1004.4 594.1 999.9 587.5 997C580.9 994.2 570.4 989.2 564.2 986C558.1 982.7 548.2 977 542.2 973.4C536.3 969.7 527.2 963.6 522 959.7C516.8 955.9 510 950.6 507 948.1C504 945.5 496.6 939.6 490.6 935C484.6 930.3 473.1 920.2 465.2 912.5C457.2 904.8 446.8 894 442.1 888.5C437.4 883 431 875.3 427.9 871.5C424.8 867.6 418.6 859.3 414.1 853C409.5 846.7 402.3 835.9 398 829C393.8 822.1 387 810.4 383 803C378.9 795.6 373 783.6 369.7 776.5C366.5 769.3 361.7 758.1 359 751.5C356.4 744.9 351.7 731.8 348.7 722.5C345.6 713.1 341.6 699.4 339.6 692C337.7 684.6 334.8 671.7 333.1 663.5C331.5 655.2 329.2 642 328 634C326.9 626 325.2 612.3 324.3 603.5C323 591.5 322.6 577.5 322.6 547.5C322.5 523 323 501.9 323.8 493C324.5 485 326 471.1 327.1 462C328.2 452.9 330.4 437.6 332 428C333.6 418.4 336.1 405.1 337.4 398.5C338.8 391.9 341.3 380.4 343 373C344.7 365.6 347.9 352.7 350.1 344.5C352.3 336.2 356 323.4 358.2 316C360.4 308.6 365 293.9 368.5 283.5C372 273 377.5 257.3 380.8 248.5C384.1 239.7 390 224.4 394 214.5C398 204.6 405.9 186.1 411.5 173.5C417.2 160.8 423.9 146 426.5 140.5C429.1 135 434.3 124.2 437.9 116.5C441.6 108.8 448.1 96.4 452.4 89C456.7 81.6 465.3 67.8 471.4 58.5C477.6 49.1 487.2 35.1 492.8 27.2C498.4 19.4 503 12.8 503 12.5C503 12.2 502.7 12 502.2 12.1C501.8 12.1 494.3 13.4 485.5 14.9ZM930.9 141C921.9 144.1 909.1 148.9 902.5 151.5C895.9 154.1 882 160.1 871.5 164.8C861 169.5 842.6 178.3 830.5 184.5C818.4 190.7 802 199.5 794 204C786 208.6 773 216.3 765 221.3C757 226.2 744.2 234.5 736.5 239.8C728.8 245 716.2 254 708.5 259.8C700.8 265.6 686.6 276.9 677 284.9C667.4 292.9 649.4 309.5 637 321.8C624.6 334.1 610.2 349.1 604.9 355.3C599.6 361.5 592.3 370.1 588.8 374.5C585.2 378.9 579.2 386.8 575.3 392C571.5 397.2 565.4 405.8 561.8 411C558.2 416.2 550.7 428.1 545 437.5C539.4 446.8 529.9 464.4 524 476.5C518 488.6 510.2 505.9 506.7 515C503.1 524.1 498.1 538 495.5 546C493 554 489.4 566.3 487.6 573.5C485.7 580.6 483 592.1 481.6 599C480.2 605.9 478.2 617.8 477.1 625.5C476 633.2 474.6 644.9 474 651.5C473.5 658.1 472.8 671.8 472.6 682C472.4 692.2 472.6 706.3 473.1 713.5C473.6 720.6 474.7 732.1 475.6 739C476.5 745.9 478.1 756 479.1 761.5C480.2 767 482.4 776.2 484 782C485.6 787.8 488.6 797.5 490.8 803.5C493 809.5 496.7 818.5 499.1 823.3C501.5 828.1 504.1 832.1 504.8 832C505.6 832 505.833 830.9 505.5 828.7C505.3 827 504.5 818.7 503.9 810.5C503.2 801.3 502.9 787.2 503.3 774C503.6 762.2 504.6 746.4 505.5 739C506.3 731.6 507.9 719.9 509.1 713C510.2 706.1 512.9 693.5 515.1 685C517.2 676.5 520.9 663.6 523.3 656.5C525.8 649.3 529.2 639.9 530.9 635.5C532.7 631.1 536.7 622.1 539.9 615.5C543 608.9 548.2 599 551.5 593.5C554.7 588 560.4 579 564.1 573.5C567.8 568 575.9 557.2 582 549.5C588.1 541.8 596.6 531.2 600.8 526C605 520.8 615 510 623 502C631 494 642 483.8 647.5 479.2C653 474.6 662.5 467.1 668.5 462.6C674.5 458.1 684.2 451.2 690 447.3C695.8 443.5 706.1 437 713 433C719.9 429 733.6 421.7 743.5 416.8C753.4 412 769.4 404.9 779 401.1C788.6 397.3 802.4 392.3 809.5 390C816.6 387.7 830.1 383.9 839.5 381.5C848.9 379.1 863.5 375.8 872 374.1C880.5 372.5 894.5 370.2 903 369.1C911.5 368 924.4 366.5 931.5 365.8C939.8 365 959.3 364.5 985 364.5C1016 364.6 1029.7 365 1043.5 366.3C1053.4 367.3 1066.7 368.8 1073 369.6C1079.3 370.4 1092.8 372.4 1103 374.1C1113.2 375.7 1121.8 377 1122.2 376.8C1122.6 376.6 1119.9 369.3 1116.2 360.5C1112.6 351.7 1104.9 335.3 1099.3 324C1093.6 312.7 1084.2 295.6 1078.4 286C1072.6 276.4 1063.6 262.4 1058.4 255C1053.2 247.6 1045 236.3 1040.1 230C1035.2 223.7 1026.6 213.1 1020.9 206.5C1015.3 199.9 1001.9 185.7 991.1 174.9C980.3 164.2 966.8 151.4 961 146.5C955.2 141.6 949.8 137.1 948.9 136.4C947.7 135.4 944.3 136.3 930.9 141ZM813 517.6C810.5 517.8 802.9 518.7 796 519.5C789.1 520.4 778.5 522 772.5 523.1C766.5 524.2 758.1 526.1 754 527.1C749.9 528.2 742.2 530.5 737 532.2C731.8 533.8 723.7 536.8 719 538.7C714.3 540.6 708.4 543.3 705.8 544.6C702.8 546.1 701 547.7 701 548.7C701 550.3 701.6 550.4 705.7 549.8C708.4 549.4 717.9 548.5 727 547.9C736.4 547.3 750.4 547.1 759.5 547.5C768.3 547.8 782.3 548.8 790.5 549.6C798.8 550.4 812 552.2 820 553.6C828 554.9 840.8 557.7 848.5 559.7C856.2 561.6 869 565.5 877 568.2C885 570.9 895.8 575 901 577.2C906.2 579.4 915.8 583.9 922.3 587.1C928.7 590.4 938.8 596 944.8 599.6C950.7 603.2 959.8 609.2 965 613C970.2 616.7 977.7 622.4 981.5 625.7C985.4 628.9 993.2 635.1 999 639.5C1004.7 643.9 1016.4 654.2 1024.9 662.5C1033.3 670.7 1044.5 682.4 1049.8 688.5C1055 694.5 1063.2 704.7 1068 711C1072.7 717.3 1079.8 727.2 1083.7 733C1087.5 738.8 1093.7 748.7 1097.5 755C1101.2 761.3 1107.8 773.2 1112.1 781.5C1119.8 796.4 1119.9 796.5 1121.1 793.5C1121.7 791.8 1124.2 785.1 1126.6 778.5C1129.1 771.9 1132.8 760.6 1135 753.5C1137.1 746.3 1140.3 735.3 1141.9 729C1143.6 722.7 1145.8 713.3 1147 708.2C1148.1 703.2 1150.1 692.6 1151.5 684.7C1152.9 676.9 1154.9 663.3 1156 654.5C1157.1 645.7 1158 637.4 1158 636C1158 633.9 1155.5 631.5 1143.3 622.4C1135.1 616.3 1121.3 606.6 1112.5 600.8C1103.7 595.1 1091.8 587.6 1086 584.3C1080.2 581 1067.6 574.3 1058 569.5C1048.4 564.7 1033.5 557.8 1025 554.3C1016.5 550.7 1001.6 545.2 992 542C982.4 538.7 969.4 534.7 963.3 533C957.1 531.4 946.9 528.9 940.8 527.6C934.6 526.2 925.2 524.4 920 523.5C914.8 522.6 903.8 520.9 895.5 519.9C884 518.3 873.2 517.8 849 517.5C831.7 517.4 815.5 517.4 813 517.6ZM882.6 584.7C882.3 585.2 887.1 589.8 893.3 595C899.4 600.2 910.1 610.1 917 617C923.9 623.9 933.6 634.2 938.6 640C943.5 645.8 950.9 655 955.1 660.5C959.3 666 965.8 675.2 969.7 681C973.5 686.8 979.3 696 982.5 701.5C985.6 707 990.4 715.8 993 721C995.6 726.2 1000.1 735.9 1002.8 742.5C1005.6 749.1 1009.7 759.9 1011.9 766.5C1014.1 773.1 1017.2 783.7 1018.9 790C1020.5 796.3 1023 808.5 1024.4 817C1025.8 825.5 1027.4 837.2 1027.9 843C1028.5 848.8 1029.7 859.8 1030.6 867.5C1031.8 878.5 1032 887.2 1031.6 908.5C1031.3 923.3 1030.8 938.1 1030.5 941.2C1030.2 944.4 1030.3 947 1030.8 947C1031.2 947 1034.9 942.6 1039.1 937.3C1043.3 931.9 1050.1 922.8 1054.2 917C1058.3 911.2 1063.5 903.8 1065.7 900.5C1067.9 897.2 1073.9 887.5 1079 879C1084.2 870.5 1093.2 853.9 1099.2 842.2L1110 821C1099.9 798.1 1093.6 785.2 1089.6 777.5C1085.6 769.8 1079.1 758.3 1075.3 752C1071.5 745.7 1065.5 736.2 1062 731C1058.5 725.8 1052.5 717.2 1048.6 712C1044.7 706.8 1037.2 697.3 1031.9 691C1026.6 684.7 1018.1 675 1012.9 669.6C1007.7 664.1 999 655.6 993.5 650.6C987.9 645.6 979.2 638.1 974 633.9C968.8 629.7 960.7 623.6 956 620.3C951.3 617.1 943 611.6 937.5 608.3C932 604.9 921.9 599.4 915 596.1C908.1 592.9 898.6 588.8 893.8 587.1C888.9 585.4 884.6 584 884 584C883.5 584 882.9 584.3 882.6 584.7ZM986.3 745.7C986.6 747.3 987.4 755.5 988.1 764C988.8 773.6 989 788.1 988.7 802C988.4 814.4 987.4 830.6 986.5 838C985.7 845.4 983.8 857.8 982.4 865.5C981 873.2 978.5 884.9 976.9 891.5C975.2 898.1 971.5 910.7 968.5 919.5C965.6 928.3 961 940.4 958.4 946.5C955.8 952.5 950.9 962.7 947.7 969C944.4 975.3 938.3 985.9 934.2 992.5C930 999.1 923.2 1009 919 1014.5C914.8 1020 908.7 1027.8 905.5 1031.8C902.2 1035.9 895.2 1044.4 889.9 1050.8C884.6 1057.2 872.6 1070 863.1 1079.2C853.7 1088.5 846 1096.2 846 1096.5C846 1096.8 849.5 1095.1 853.8 1092.8C858 1090.5 867.4 1085.3 874.5 1081.2C881.7 1077.1 893.8 1069.6 901.5 1064.5C909.2 1059.4 921.8 1050.5 929.5 1044.7C937.2 1038.9 949.4 1029.3 956.5 1023.4C963.7 1017.4 979 1003.1 990.7 991.5L1011.8 970.5C1013.5 960.4 1014.9 950.7 1016 942.5C1017 934.2 1018.1 922.5 1018.5 916.5C1018.8 910.4 1019.3 901.9 1019.5 897.5C1019.8 893.1 1019.6 879.9 1019 868.2C1018.5 856.6 1017.1 840.8 1016.1 833.2C1015 825.7 1012.9 813.9 1011.5 807C1010 800.1 1006.7 788 1004.1 780C1001.4 772 996.8 760.4 993.9 754.2C990.7 747.6 987.9 742.9 987.1 743C986.1 743 985.9 743.8 986.3 745.7Z" fill="white"/>
</svg>
